<svg xmlns="http://www.w3.org/2000/svg" xml:space="preserve" viewBox="0 0 240 480"><path d="M157.82 44.42c-1.23.18-2.51.31-3.7.31-7.13 0-8.1-4.09-8.1-4.62 0-.13.09-.18.18-.18.18 0 .53.26.84.35 2.02.7 4.18 1.01 6.25 1.01 1.54 0 3.65-.13 5.15-.53 0-1.72.04-3.48.13-5.24h-.4c-6.95 0-7.3-4.58-7.3-5.46 0-.31.04-.44.18-.44.22 0 .53.31.84.48 2.6 1.5 4.14 1.89 5.54 1.89.44 0 .88-.04 1.36-.09v-.04l.09-1.19c.18-1.67.31-2.99.31-3.92 0-1.45-.62-2.2-2.02-2.46-.53-.13-.84-.26-.84-.48 0-.13 1.23-2.07 2.82-2.07 1.45 0 3.92 2.24 3.92 3.7 0 .66-.31 1.36-.62 2.42-.31 1.06-.62 2.11-.84 3.08 1.28-.84 2.16-.84 2.33-.84.75 0 1.98.31 1.98 1.54 0 .18 0 2.64-5.06 3.65-.13 1.28-.18 2.46-.18 3.7v1.1c2.86-.97 3.04-1.63 3.04-1.94 0-.62-1.1-1.58-1.58-1.98-.35-.31-.53-.44-.53-.48s.04-.04.09-.04c.13 0 .44.13.7.22 1.1.4 2.46.75 3.96.79 1.58.04 2.42.75 2.42 1.67 0 .84-.7 3.3-7.88 5.37.4 3.61.92 6.82 1.01 7.22 4.53 1.5 6.87 4.09 6.87 6.21 0 1.32-.88 2.29-1.94 2.29-.79 0-1.67-.53-2.42-1.76-.62-1.06-1.5-1.98-2.51-2.77-1.19 3.08-4.4 5.41-7.75 5.41-3.43 0-6.34-2.51-6.34-5.15 0-3.04 3.92-5.15 8.54-5.15.75 0 1.54.09 2.33.18 0-.97-.04-1.94-.09-2.51-.09-1.1-.09-2.2-.13-3.34l-.65.09zm-2.9 8.01c-.26 0-5.63 0-5.63 2.6 0 1.36 1.67 2.16 3.57 2.16 4.4 0 5.72-3.17 5.85-4.05-1.28-.45-2.56-.71-3.79-.71zM154.87 78.29c-2.07 5.94-3.78 11.88-5.06 17.78-.4 1.8-.62 3.87-2.29 5.28-.53.44-1.1.66-1.58.66-1.98 0-1.98-2.86-1.98-2.99 0-1.54.88-2.55 1.67-4.18 1.58-3.17 4.58-10.39 6.42-16.15-.92.22-1.58.22-1.98.22-2.91 0-6.43-1.58-6.43-4.88 0-.31.09-.4.22-.4.18 0 .48.18.92.35 1.67.7 3.08 1.32 4.88 1.32 1.23 0 2.42-.18 3.26-.4.09-.7.13-1.36.13-1.94 0-1.58-.35-2.68-1.19-2.73-.79-.04-1.23-.13-1.23-.53 0 0 .7-2.02 2.38-2.02.79 0 3.48.57 3.48 4.09 0 .22-.04.4-.04.62.57-.09 1.01-.4 1.98-.57.18-.04.4-.04.57-.04.97 0 1.85.44 1.85 1.45 0 2.29-4.36 4.09-5.85 4.62l-.13.44zm13.95 23.64c-5.54 0-10.12-3.08-10.12-6.51 0-2.2 1.85-3.7 2.02-3.7.09 0 .13.13.13.31 0 .35-.22 1.01-.4 1.45-.09.18-.09.35-.09.53 0 1.58 3.04 3.26 6.34 3.26.22 0 .44-.04.66-.04.75-.04 1.5-.35 2.6-.35 1.54 0 4.44.53 4.44 2.38.01 1.39-1.97 2.67-5.58 2.67zm-.44-26.45c3.83 0 7.3 2.16 7.3 3.78 0 .84-.66 1.54-2.11 1.76-2.33.31-4.14.66-6.78 2.64-.66.48-1.1.75-1.28.75-.09 0-.13-.04-.13-.13 0-.18.22-.53.57-1.01 2.55-3.48 2.68-3.83 2.68-4.14 0-.7-1.67-1.32-2.77-1.32-.18 0-.4 0-.57.04-1.06.22-1.8.44-2.16.44-.13 0-.22-.04-.22-.13.02 0 1.25-2.68 5.47-2.68zM171.5 111.79v34.55h-4.47v-2.23h-17.4v3.09h-4.08v-35.41h25.95zm-21.87 13.88h17.4v-10.1h-17.4v10.1zm0 14.82h17.4v-11h-17.4v11zM178.03 160.21v3.78h-16.37c2.81 3.92 5.46 7.2 7.95 9.84 2.64 2.84 5.77 5.57 9.41 8.21a14.91 14.91 0 0 0-2.71 3.61c-3.55-2.75-6.62-5.59-9.2-8.51-2.09-2.41-4.3-5.3-6.62-8.68v11.56h8.25v3.74h-8.25v8.81h-4.3v-8.81h-8.29v-3.74h8.29v-11.69c-2.72 4.21-5.23 7.56-7.52 10.05-2.32 2.49-5.16 4.97-8.51 7.43-.54-1.35-1.33-2.55-2.36-3.61 3.15-2.29 5.84-4.58 8.08-6.88 2.52-2.72 5.33-6.5 8.42-11.34h-15.5v-3.78h17.4v-7.91h4.3v7.91h17.53zM158.97 204.93c-.4 0-.84 0-1.23.04 1.19 1.06 1.98 3.48 1.98 6.42 0 8.23-6.6 18.92-11.44 18.92-2.6 0-3.65-3.43-5.24-5.81-.7-1.06-1.06-2.55-1.06-4.22 0-6.12 5.1-17.29 17.91-17.29 10.21 0 15.84 6.91 15.84 14.26 0 4.05-1.67 8.19-5.19 11.44-5.37 4.97-13.82 5.54-14.96 5.54-.4 0-.62-.04-.62-.13 0-.13.66-.44 2.07-.79 3.39-.88 8.49-3.61 10.96-6.73 2.42-3.12 3.48-6.42 3.48-9.46 0-6.65-4.97-12.19-12.01-12.19h-.49zm-1.59 3.82c0-.44 0-3.48-1.32-3.48-.09 0-.18 0-.31.04s-.31.09-.48.09c-7 2.07-10.56 7.92-10.56 12.98 0 4.05 2.29 6.78 3.74 6.78 3.56.01 8.93-10.02 8.93-16.41zM161.43 264.46c-3.74 0-9.24 2.55-9.24 6.47 0 2.24 2.02 4.27 6.51 4.27 1.76 0 3.74-.31 5.41-1.1.66-.31 1.23-.44 1.8-.44 1.54 0 2.6 1.06 2.6 2.29 0 2.29-3.7 3.7-8.01 3.7-6.69 0-10.56-3.79-10.56-7.92 0-3.87 3.39-7.92 7.44-10.03-2.33-1.23-2.95-3.65-2.95-6.42 0-1.8.26-3.79.48-5.59.13-1.01.22-1.94.22-2.68 0-1.37-.31-1.98-1.67-2.29-1.01-.22-1.41-.4-1.41-.75 0-.48 1.19-1.94 2.95-1.94 1.8 0 4.62 2.29 4.62 4.84 0 .79-.18 1.72-.48 2.77-.62 2.16-1.32 4.66-1.32 6.95 0 1.1.13 3.26 1.41 4.27 1.41-.62 3.26-1.63 4.88-1.63 1.5 0 2.55.84 2.55 2.16 0 1.45-1.45 3.08-4.31 3.08h-.92zm6.6-7.13c-1.1-1.23-2.46-2.29-3.56-2.86-.48-.26-.75-.44-.75-.62 0-.35 1.32-.4 1.89-.4 2.6 0 5.1 1.14 5.1 2.95 0 .88-.62 1.58-1.41 1.58-.39.01-.87-.16-1.27-.65zm4.58-2.11a14.68 14.68 0 0 0-3.65-2.73c-.48-.22-.75-.44-.75-.57 0-.48 1.98-.48 2.11-.48 1.94 0 4.97.66 4.97 2.86 0 .88-.62 1.54-1.41 1.54-.39 0-.83-.18-1.27-.62zM160.68 321.62c-7.39 0-13.29-3.21-13.29-7.88 0-2.95 2.64-5.02 2.77-5.02.09 0 .13.04.13.13 0 .31-.26.88-.57 1.54-.26.57-.44 1.1-.44 1.67 0 2.77 4.22 4.97 9.55 4.97 1.8 0 3.61-.22 5.19-.71.84-.26 1.54-.79 2.42-.92.35-.04.7-.09 1.06-.09 2.02 0 3.3 1.01 3.3 2.24 0 3.23-7.04 4.07-10.12 4.07zM165 296.8c-2.99.13-6.21 1.36-7.88 2.64-.92.71-1.45 1.01-1.63 1.01-.04 0-.09-.04-.09-.09 0-.18.44-.79 1.14-1.63.48-.57 1.19-1.37 1.19-1.76 0-.31-.09-.57-.53-.57-5.63-.31-7.61-4.36-7.61-4.8 0-.09.04-.13.13-.13.26 0 .75.18 1.54.4 1.89.53 3.92.75 6.21.75 1.28 0 2.6-.04 4-.18.7-.04 1.45-.13 2.11-.13 2.9 0 4.27 1.8 4.27 2.77.01 1.01-1.36 1.67-2.85 1.72zM146.82 348.76c-2.2 0-3.61-1.67-3.61-3.48 0-.97.44-2.02.7-2.02.26 0 .62.48 1.19 1.1.44.44 1.19.57 2.11.57 1.63 0 3.74-.48 5.5-.97.53-1.94.75-3.17.75-4.36 0-1.28-.26-2.29-1.1-2.42s-1.28-.26-1.28-.57c0-.53 1.45-2.24 3.48-2.24 2.2 0 2.82 1.98 2.82 3.21s-.62 3.17-1.41 5.41c.57-.18 1.14-.22 1.67-.22 4.45 0 5.37 5.1 5.37 8.45 0 9.42-5.68 13.51-9.24 13.51-2.6 0-2.64-1.5-2.64-2.38 0-1.58-.22-2.42-.53-3.12-.44-1.01-.62-1.58-.62-1.8 0-.13 0-.18.09-.18.22 0 .79.62 1.32 1.23.88 1.01 1.98 1.45 2.95 1.45 3.34 0 5.24-6.43 5.24-11.05 0-1.54-.22-4.4-2.02-4.4-.79 0-1.72.48-2.55 1.01-2.55 6.38-6.25 13.77-7.79 16.68-.66 1.19-1.98 3.21-4.14 3.21-.88 0-1.45-.53-1.45-1.54 0-1.67 1.23-3.3 2.07-4.22 3.04-3.43 6.12-8.32 7.96-12.67-1.32.76-3.3 1.81-4.84 1.81zm25.52 6.47c-.62-.26-2.24-.48-3.26-.53-1.67-.04-2.38-.18-2.38-.31s.84-.35 2.2-.62c1.67-.31 4-1.1 4-3.56 0-2.95-2.9-4.22-5.33-5.19-.7-.26-1.94-.66-1.94-.88 0-.13.4-.22 1.5-.22 10.34 0 10.47 6.21 10.47 7.04 0 1.98-1.23 4.71-3.48 4.71-.67 0-1.29-.22-1.78-.44zM158.48 385.42c-.4 0-4.18 1.63-8.32 3.87-.79.4-1.76.62-2.77.62-2.2 0-4.93-.92-4.93-3.08 0-.48.13-.62.4-.62.22 0 .57.13.92.18.62.09 1.19.18 1.85.18.92 0 1.94-.18 3.21-.66 4.93-1.94 10.08-4.71 16.06-6.51 1.45-.44 2.02-.97 3.7-.97 3.39 0 5.85 1.01 5.85 2.9 0 1.14-1.06 2.2-3.17 2.2-.31 0-.66-.04-1.01-.09-.79-.09-1.54-.18-2.33-.18-2.95 0-5.59.7-6.6 1.32-2.38 1.36-4.4 7-4.4 12.1 0 6.16 2.99 9.11 6.51 9.11.66 0 1.41-.13 2.2-.4.53-.18 1.01-.22 1.45-.22 1.72 0 2.86 1.1 2.86 2.33 0 1.41-1.72 3.26-6.03 3.26-2.95 0-9.68-1.63-9.68-11.62 0-4.62 1.5-9.86 4-13.33.13-.18.26-.31.26-.4h-.03zm11.75 5.8c-1.1-1.23-2.46-2.29-3.56-2.86-.48-.26-.75-.44-.75-.62 0-.26 1.01-.4 1.85-.4 3.87 0 5.15 1.94 5.15 2.99 0 .84-.66 1.54-1.41 1.54-.44.01-.88-.16-1.28-.65zm4.58-2.11a14.68 14.68 0 0 0-3.65-2.73c-.48-.26-.79-.44-.79-.62 0-.35 1.28-.48 2.11-.48 4.49 0 4.97 2.29 4.97 2.9 0 .88-.62 1.54-1.41 1.54-.39.01-.84-.17-1.23-.61zM173.62 423.43c-1.28-2.42-2.99-4.27-5.06-5.9-.44-.35-.75-.57-.75-.7 0-.09.13-.13.44-.13 2.68 0 10.56 1.67 10.56 5.9 0 1.54-1.19 2.73-2.55 2.73-.92-.01-1.94-.54-2.64-1.9zM79.33 53.48c0 .84-.04 3.83-2.11 3.83-.7 0-1.28-.57-1.8-1.36-.62-.92-2.02-1.54-3.56-2.07-1.36 1.01-2.82 1.72-4.44 1.72-1.14 0-1.63-.57-1.63-1.36 0-1.45 1.54-3.52 2.55-3.52.26 0 .48.09.84.22.13.04.26.09.44.09.84 0 2.73-.88 7.08-3.61V45.4c0-1.8-.04-3.61-.09-5.33-1.32.66-2.95 1.19-4.71 1.19-2.07 0-4.4-.79-4.4-3.87 0-.44.13-.62.31-.62s.48.18.84.31c.7.26 1.67.53 2.99.53 1.98 0 3.43-.53 4.8-1.19-.4-4.58-.48-5.76-1.98-5.76-1.19 0-1.67-.18-1.67-.53 0-.31 1.06-2.11 2.77-2.11 1.01 0 3.7 1.1 3.7 3.61 0 .4 0 .88-.04 1.5.22 0 .4.04.62.04.35 0 .75-.04 1.36-.09.18 0 .31-.04.44-.04 1.28 0 1.8.66 1.8 1.45 0 1.58-1.54 2.68-4.31 4.31 0 2.33.04 4.8.09 7.13 3.3-1.89 6.95-3.61 10.56-3.61 3.12 0 7.57 1.41 7.57 5.32 0 4.09-4.93 8.23-9.73 8.23-2.99 0-4.8-1.8-4.8-4.71 0-2.86 1.94-6.29 2.29-6.29.09 0 .13.09.13.26 0 .35-.13.97-.4 2.07-.13.57-.22 1.1-.22 1.67 0 1.67.79 3.08 2.95 3.08 3.61 0 5.98-2.6 5.98-4.84 0-2.24-2.33-3.48-4.71-3.48-3.21 0-6.43 2.29-9.59 4.75l.09 4.58v.52zm-6.74-.22c1.01.13 1.76.22 2.33.22 1.06 0 1.45-.26 1.5-.7.09-.92.13-1.89.18-2.86-1.41 1.19-2.77 2.37-4.01 3.34zM98.38 38.3c-1.1.09-3.04.35-4.09.92-.4.22-1.06.53-1.36.53-.09 0-.18-.04-.18-.13 0-.18.22-.48.88-1.14.44-.44 1.36-1.67 1.36-2.51 0-.7-.66-1.01-2.16-1.01-.88 0-1.76.26-2.51.88-.88.7-1.45 1.1-1.72 1.1-.09 0-.13-.09-.13-.18 0-.4 1.67-4.62 6.6-4.62 3.21 0 5.94 1.98 5.94 3.96.01 1.41-1.31 2.07-2.63 2.2zM79.72 64.01l4.25 1.38c-.4.52-.8 1.03-1.2 1.55 3.06 2.86 5.96 5.24 8.68 7.13 2.92 2.12 6.4 4.15 10.44 6.1-1.09.97-2.01 2.18-2.75 3.61-2.98-1.58-5.63-3.15-7.95-4.73v3.35H69.92v-2.84c-2.01 1.38-4.35 2.84-7.05 4.38l-1.89-3.27c4.35-2.52 7.61-4.78 9.75-6.79 2.84-2.4 5.84-5.69 8.99-9.87zm19.93 22.64v3.48H78.9l-4.55 9.2c4.87-.37 9.77-.9 14.7-1.59a63.42 63.42 0 0 0-3.52-3.82l2.96-2.58c3.75 3.75 6.85 7.42 9.28 11l-3.61 2.41c-.92-1.43-1.86-2.79-2.84-4.08-7.96 1.35-16.71 2.54-26.25 3.57l-.64-4.34c1.8-.06 3.64-.14 5.5-.26 1.52-3.27 2.85-6.43 4-9.5H62.87v-3.48h36.78zm-28.66-7.86h19.85c-.63-.46-1.25-.92-1.85-1.38-2.66-2.12-5.51-4.67-8.55-7.65-2.23 2.64-4.41 4.84-6.53 6.62-.82.77-1.8 1.58-2.92 2.41zM77.74 143.11c-.75 0-10.34-1.1-10.34-15.45 0-1.28.09-2.6.18-3.87.04-.48.04-1.06.04-1.63 0-1.01-.04-2.02-.13-2.64-.09-.57-.22-1.06-.22-1.36 0-.18.09-.31.26-.31s4.27 1.28 4.27 5.63c0 .7-.09 1.36-.22 2.07-.31 1.54-.62 3.3-.62 5.02 0 6.38 4.66 7.08 4.75 7.08.7 0 1.23-.53 1.32-.75.84-1.45 1.8-3.74 2.6-5.28.7-1.36 1.14-2.07 1.28-2.07.09 0 .09.09.09.22 0 .35-.13 1.1-.4 2.29-.4 1.72-.57 3.26-.57 4.58 0 1.32.18 2.42.4 3.43.04.26.09.53.09.75-.01 1.37-1.24 2.29-2.78 2.29zm16.06-11.09c-.35-4.44-3.56-8.19-6.29-8.85-1.1-.26-1.85-.57-1.85-.79 0-.18.4-.26 1.32-.26 8.98 0 11.84 6.25 11.84 9.29 0 2.16-1.32 3.26-2.64 3.26-1.14-.01-2.24-.89-2.38-2.65zM72.77 157.8c-.4-.57-.66-1.01-.66-1.28 0-.26.26-.35.92-.35 5.15 0 5.81 3.92 5.81 5.37 0 .4-.04.84-.13 1.32-.79 5.02-2.68 10.17-2.68 15.31 0 2.64.22 8.58 7.44 8.58 3.83 0 8.58-1.85 12.72-4.75.92-.66 1.76-1.23 2.02-1.23.09 0 .13.04.13.09 0 .84-6.69 9.99-15.58 9.99-3.56 0-9.99-1.58-9.99-12.81 0-4.88 1.14-9.86 1.23-14.7 0-1.75-.09-3.82-1.23-5.54zM80.82 220.42c-1.23.18-2.51.31-3.7.31-7.13 0-8.1-4.09-8.1-4.62 0-.13.09-.18.18-.18.18 0 .53.26.84.35 2.02.7 4.18 1.01 6.25 1.01 1.54 0 3.65-.13 5.15-.53 0-1.72.04-3.48.13-5.24h-.4c-6.95 0-7.31-4.58-7.31-5.46 0-.31.04-.44.18-.44.22 0 .53.31.84.48 2.6 1.5 4.14 1.89 5.54 1.89.44 0 .88-.04 1.36-.09v-.04l.09-1.19c.18-1.67.31-2.99.31-3.92 0-1.45-.62-2.2-2.02-2.46-.53-.13-.84-.26-.84-.48 0-.13 1.23-2.07 2.82-2.07 1.45 0 3.92 2.24 3.92 3.7 0 .66-.31 1.36-.62 2.42s-.62 2.11-.84 3.08c1.28-.84 2.16-.84 2.33-.84.75 0 1.98.31 1.98 1.54 0 .18 0 2.64-5.06 3.65-.13 1.28-.18 2.46-.18 3.7v1.1c2.86-.97 3.04-1.63 3.04-1.94 0-.62-1.1-1.58-1.58-1.98-.35-.31-.53-.44-.53-.48s.04-.04.09-.04c.13 0 .44.13.7.22 1.1.4 2.46.75 3.96.79 1.58.04 2.42.75 2.42 1.67 0 .84-.7 3.3-7.88 5.37.4 3.61.92 6.82 1.01 7.22 4.53 1.5 6.87 4.09 6.87 6.21 0 1.32-.88 2.29-1.94 2.29-.79 0-1.67-.53-2.42-1.76-.62-1.06-1.5-1.98-2.51-2.77-1.19 3.08-4.4 5.41-7.75 5.41-3.43 0-6.34-2.51-6.34-5.15 0-3.04 3.92-5.15 8.54-5.15.75 0 1.54.09 2.33.18 0-.97-.04-1.94-.09-2.51-.09-1.1-.09-2.2-.13-3.34l-.64.09zm-2.9 8.01c-.26 0-5.63 0-5.63 2.6 0 1.36 1.67 2.16 3.56 2.16 4.4 0 5.72-3.17 5.85-4.05-1.27-.45-2.55-.71-3.78-.71zM72.77 245.8c-.4-.57-.66-1.01-.66-1.28s.26-.35.92-.35c5.15 0 5.81 3.92 5.81 5.37 0 .4-.04.84-.13 1.32-.79 5.02-2.68 10.17-2.68 15.31 0 2.64.22 8.58 7.44 8.58 3.83 0 8.58-1.85 12.72-4.75.92-.66 1.76-1.23 2.02-1.23.09 0 .13.04.13.09 0 .84-6.69 9.99-15.58 9.99-3.56 0-9.99-1.58-9.99-12.81 0-4.88 1.14-9.86 1.23-14.7 0-1.75-.09-3.82-1.23-5.54zM88.61 298.91c.66 0 1.8-.35 1.98-.48.88-.7 1.23-.79 1.8-.79 1.14 0 2.46.53 2.46 1.67 0 1.41-1.8 2.33-3.96 2.33-.97 0-1.94-.18-2.68-.57-.04.44-.09.92-.09 1.36 0 .79.09 1.63.22 2.46.35 2.2 1.41 4.05 1.54 6.2 2.46.79 5.5 2.51 5.5 4.49 0 1.06-.84 1.85-1.76 1.85-.66 0-1.36-.35-1.98-1.23a8.95 8.95 0 0 0-2.2-2.24c-1.45 3.3-5.02 3.61-6.03 3.61-2.51 0-4.84-1.98-4.84-3.87 0-1.85 2.11-3.39 6.38-3.39.62 0 1.23.04 1.85.13 0-1.72-.4-3.43-.62-5.1-.22-1.58-.26-3.12-.26-4.62 0-1.01.04-2.02.04-2.99v-.26c0-1.58-.4-2.29-.92-2.29-.62-.04-1.1-.09-1.1-.35 0-.44 1.14-1.67 2.46-1.67.66 0 2.99.92 2.99 2.68 0 .57-.18 1.23-.48 2.11l-.3.96zm-5.01 12.98c-1.8 0-3.52.75-3.52 1.63 0 .18.26 1.23 2.82 1.23 1.98 0 3.34-1.14 3.74-2.29-1.02-.35-2.03-.57-3.04-.57zM73.21 369.27c-.09 0-.13 0-.13-.04 0-.13.53-.57 1.89-1.36 5.37-3.21 11.84-10.43 11.84-18.7 0-4.14-1.58-6.73-3.48-6.73-.84 0-1.76.48-2.86 1.63-.88.92-1.98 1.94-3.43 1.94-1.36 0-4.09-1.19-4.09-3.74 0-1.14.7-2.51 1.19-2.51.31 0 .53.4.84 1.1.22.48.79.66 1.41.66.88 0 1.94-.31 2.51-.53 1.41-.57 3.21-1.19 5.02-1.19 5.19 0 7.52 5.94 7.52 9.68 0 2.02-.48 4.14-1.36 6.25-4.46 10.64-16.47 13.54-16.87 13.54zm10.52-38.55c2.29 0 3.96 1.58 3.96 2.95 0 .97-.88 1.85-3.12 1.85-2.02.04-3.83.62-6.38 1.54-.48.18-.84.31-1.06.31-.09 0-.13-.04-.13-.09 0-.13.22-.4.75-.88.57-.53 1.23-1.01 1.89-1.67.31-.31.4-.48.4-.62s-.18-.18-.4-.26c-3.34-.97-4.31-3.96-4.31-4.05 0-.18.13-.22.31-.22.35 0 1.01.26 1.85.66.92.44 2.95.53 4.58.53.57 0 1.1-.04 1.5-.04h.16zM81.09 370.46h1.98v44.01h-1.98v-44.01z"/><path d="M81.09 414.24h1.98v44.01h-1.98v-44.01z"/></svg>