<svg xmlns="http://www.w3.org/2000/svg" xml:space="preserve" viewBox="0 0 400 50"><path fill="#616161" d="M28.18 16.02h-9.46v22.34h-5.08V16.02H4.51v-4.6h23.68v4.6zM54.12 11.42l-9.87 26.94h-4.9l-9.87-26.94h5.31l6.94 20.89 7.09-20.89h5.3zM89.19 14.39c-4.58 4.48-8.83 8.21-12.77 11.21l-1.3-2.15c-.4 6.51-1.83 11-4.3 13.47-2 1.93-4.8 3.55-8.39 4.86-.5-1.88-1.41-3.45-2.75-4.71 3.46-.87 6-2.21 7.61-4.04 1.66-1.86 2.49-5.69 2.49-11.5v-2.38h5.34v1.45c2-1.71 3.88-3.38 5.64-5.01H58.69v-4.75h26.5l.59-.3 3.41 3.85zM127.64 36.73H95.05v-5.05h32.58v5.05zm-4.79-18.04H99.32v-4.9h23.53v4.9zM162.37 28.75l-3.67 4.3c-1.06-1.14-3.19-2.96-6.38-5.46-3.96 5.62-9.09 10.09-15.4 13.43-.72-1.78-1.81-3.27-3.27-4.45 7.03-3.36 11.85-7.3 14.47-11.8a42.588 42.588 0 0 0-8.68-4.19l2.52-4.12a73.7 73.7 0 0 1 8.57 3.97c.62-1.29 1.13-2.26 1.52-2.93 1.04-3.04 1.92-5.71 2.63-8.02l5.2 1.74c-.69 1.48-1.15 2.68-1.37 3.6-.87 2.42-2.07 5.2-3.6 8.31 3.89 2.71 6.37 4.58 7.46 5.62zM202.38 27.23H172.5v-4.86h29.87v4.86zM220.6 22.7l-2.38 4.08a31.926 31.926 0 0 0-7.76-3.53l2-4.12c3 .77 5.71 1.96 8.14 3.57zm21.33-.93c-5.79 8.14-14.82 14.66-27.09 19.56l-2.38-5.2c11.03-3.56 19.82-9.73 26.35-18.52.92 1.91 1.96 3.3 3.12 4.16zm-16.7-8.13-2.82 4.12a52.77 52.77 0 0 0-7.76-4.42l2.26-4.01c3.13 1.1 5.9 2.53 8.32 4.31zM273.66 41.77h-4.82v-1.19h-15.1v-4.45h15.1v-4.45h-15.1v-4.45h15.1v-4.08h-15.1V18.7h19.93v23.07zM300.12 16.8l-3.53 4.27c-2.75-2.6-5.71-4.94-8.91-7.01l3.15-3.97c3.21 1.82 6.3 4.06 9.29 6.71zm18.11 3.34c-5.34 7.6-13.27 13.97-23.79 19.11-1.26.42-2.6 1.01-4.01 1.78l-2.6-5.16c10.98-3.66 19.93-10.17 26.83-19.52.37.54.87 1.26 1.48 2.15.31.38 1 .92 2.09 1.64zM329.66 7.34l4.9 1.63c-1.09 2.52-2.23 4.95-3.41 7.27v6.35c3.51-3.59 6.28-8.67 8.31-15.25l4.6 1.34c-.64 1.86-1.32 3.62-2.04 5.31h14.51v4.34h-10.54v3.41h8.42v4.16h-8.42v3.41h9.05v4.12h-9.05v8.79h-4.9v-23.9h-1.19c-1.76 3.24-3.74 6.01-5.94 8.31-.77-1.24-1.71-2.31-2.82-3.23v18.67h-4.75V24.52a80.732 80.732 0 0 1-3.12 4.49c-.42-2.25-.96-4.13-1.63-5.64 2.7-3.64 5.37-8.98 8.02-16.03zM371.33 39.55h-5.16v1.89h-4.34V25.15h13.84v15.73h-4.34v-1.33zm0-10.54h-5.16v6.68h5.16v-6.68zm12.36-7.02h-12.77v1.08h-4.6V8.82h21.97v14.25h-4.6v-1.08zm0-9.35h-12.77v5.53h12.77v-5.53zm5.05 26.91h-5.49v1.89h-4.3V25.15h14.1v15.73h-4.3v-1.33zm0-10.54h-5.49v6.68h5.49v-6.68z"/></svg>